<?xml version="1.0" encoding="utf-8"?>
<!-- Generator: Adobe Illustrator 24.1.2, SVG Export Plug-In . SVG Version: 6.00 Build 0)  -->
<svg version="1.1" id="레이어_1" xmlns="http://www.w3.org/2000/svg" xmlns:xlink="http://www.w3.org/1999/xlink" x="0px"
	 y="0px" viewBox="0 0 64 64" style="enable-background:new 0 0 64 64;" xml:space="preserve">
<g>
	<path d="M20.94,26.69c-0.68,0.24-1.11-0.11-1.38-0.61c-1.19-2.21-1.9-4.55-1.78-7.08c0.05-1.01,0.5-1.34,1.75-1.47
		c-0.12-0.72-0.27-1.43-0.37-2.15c-0.32-2.28-0.26-4.53,0.48-6.74c0.67-2.02,1.88-3.65,3.65-4.86c0.14-0.09,0.26-0.2,0.29-0.21
		c-0.39-0.8-0.76-1.55-1.19-2.42c0.65,0,1.08-0.03,1.5,0c3.19,0.26,6.36,0.41,9.55-0.09c2.48-0.39,5.64,1.42,6.66,3.73
		c0.22,0.51,0.45,0.74,1.05,0.82c1.61,0.23,2.71,1.19,3.36,2.65c0.74,1.67,0.83,3.44,0.64,5.21c-0.14,1.35-0.39,2.69-0.59,4.04
		c1.42,0.27,1.77,0.65,1.71,2.16c-0.08,2.13-0.67,4.15-1.6,6.06c-0.33,0.67-0.75,1.26-1.69,0.94c-0.47,2.53-1.35,4.83-3.03,6.78
		c-0.1,0.12-0.13,0.35-0.11,0.52c0.05,0.55,0.15,1.09,0.22,1.64c0.2,1.55,0.92,2.59,2.52,3.11c3.18,1.04,6.27,2.41,9.5,3.28
		c3.17,0.86,4.89,2.74,5.4,5.82c0.46,2.79,0.29,5.58-0.12,8.36c-0.08,0.55-0.36,0.88-0.85,1.14c-4,2.16-8.28,3.58-12.73,4.47
		c-10.32,2.05-20.5,1.54-30.45-1.95c-2.02-0.71-3.94-1.7-5.88-2.61c-0.28-0.13-0.61-0.48-0.65-0.77c-0.51-3.15-0.81-6.33-0.04-9.48
		c0.62-2.56,2.23-4.11,4.86-4.88c3.63-1.07,7.17-2.43,10.75-3.66c0.56-0.19,0.93-0.54,1.07-1.07c0.28-1.08,0.53-2.18,0.76-3.27
		c0.04-0.18-0.02-0.45-0.14-0.59C22.31,31.56,21.41,29.24,20.94,26.69z"/>
</g>
</svg>
