<?xml version="1.0" encoding="utf-8"?>
<!-- Generator: Adobe Illustrator 24.1.2, SVG Export Plug-In . SVG Version: 6.00 Build 0)  -->
<svg version="1.1" id="레이어_1" xmlns="http://www.w3.org/2000/svg" xmlns:xlink="http://www.w3.org/1999/xlink" x="0px"
	 y="0px" viewBox="0 0 32 32" style="enable-background:new 0 0 32 32;" xml:space="preserve">
<g>
	<path d="M19.75,21v-2.5c0.56-0.28,2.17-2.19,2.34-3.69c0.44-0.03,1.14-0.44,1.34-2.04c0.11-0.86-0.33-1.35-0.59-1.5
		c0,0,0.66-1.25,0.66-2.77c0-3.04-1.19-5.63-3.75-5.63c0,0-0.89-1.88-3.75-1.88c-5.3,0-7.5,3.4-7.5,7.5c0,1.38,0.66,2.77,0.66,2.77
		c-0.27,0.15-0.71,0.64-0.6,1.5c0.21,1.6,0.9,2.01,1.35,2.04c0.17,1.5,1.78,3.41,2.34,3.69V21C11,24.75,1,22.25,1,31h30
		C31,22.25,21,24.75,19.75,21z"/>
</g>
</svg>
