<?xml version="1.0" encoding="utf-8"?>
<!-- Generator: Adobe Illustrator 25.4.1, SVG Export Plug-In . SVG Version: 6.00 Build 0)  -->
<svg version="1.1" id="레이어_1" xmlns="http://www.w3.org/2000/svg" xmlns:xlink="http://www.w3.org/1999/xlink" x="0px"
	 y="0px" viewBox="0 0 32 32" style="enable-background:new 0 0 32 32;" xml:space="preserve">
<path d="M30.4,15.1c-0.4-0.5-0.9-0.7-1.5-0.7c-0.6,0-6.7,0-10.7,0c-0.2,0-0.7,0-0.7,0s0-0.5,0-0.7c0-4.5,0-5.9,0-10.4
	c0-0.2,0-0.4,0-0.6c-0.1-0.6-0.4-1.1-1-1.3C16,1.2,15.4,1.3,15,1.7c-0.4,0.4-0.6,0.9-0.6,1.4c0,4.6,0,10.7,0,10.7l0,0.8l-0.6-0.1
	c0,0-6.1,0-10.7,0c-0.6,0-1.1,0.1-1.4,0.6c-0.4,0.5-0.5,1.1-0.2,1.7c0.3,0.6,0.8,1,1.5,1c2,0,3.9,0,5.9,0c2.9,0,2.7,0,5.6,0
	c0,0.2,0,0.4,0,0.6c0,4.5,0,6,0,10.5c0,0.2,0,0.4,0,0.6c0.1,0.7,0.4,1.1,1.1,1.3c0.6,0.2,1.3,0.1,1.6-0.4c0.3-0.4,0.4-0.9,0.4-1.3
	c0-4.5,0-6.1,0-10.6c0-0.2-0.2-0.7-0.2-0.7s6.4,0,9,0c2.2,0,0.5,0,2.7,0c0.7,0,1.2-0.3,1.5-0.9C30.8,16.2,30.8,15.6,30.4,15.1z"/>
</svg>
