<?xml version="1.0" encoding="utf-8"?>
<!-- Generator: Adobe Illustrator 24.1.2, SVG Export Plug-In . SVG Version: 6.00 Build 0)  -->
<svg version="1.1" id="레이어_1" xmlns="http://www.w3.org/2000/svg" xmlns:xlink="http://www.w3.org/1999/xlink" x="0px"
	 y="0px" viewBox="0 0 32 32" style="enable-background:new 0 0 32 32;" xml:space="preserve">
<g>
	<path d="M15.99,18.25c-2.06,2.06-4.08,4.08-6.1,6.1c-1.39,1.39-2.77,2.77-4.16,4.16C5.24,28.99,4.65,29.11,4,28.87
		c-0.61-0.23-0.93-0.7-1-1.34c-0.06-0.58,0.22-1.02,0.62-1.41c3.23-3.22,9.69-9.67,9.69-9.67l0.5-0.32l-0.5-0.57
		c0,0-6.46-6.45-9.69-9.67c-0.4-0.4-0.67-0.84-0.62-1.41C3.07,3.86,3.38,3.4,3.95,3.15C4.53,2.9,5.07,2.99,5.57,3.36
		C5.73,3.49,5.88,3.65,6.03,3.8c3.15,3.15,6.31,6.3,9.46,9.45c0.15,0.15,0.46,0.53,0.46,0.53s0.36-0.33,0.5-0.48
		c3.23-3.22,6.46-6.45,9.69-9.68c0.43-0.43,0.91-0.7,1.53-0.59c0.61,0.11,1.05,0.46,1.24,1.05c0.2,0.62,0.07,1.19-0.41,1.67
		c-1.58,1.57-3.15,3.15-4.73,4.72c-1.83,1.83-5.65,5.62-5.65,5.62s0.43,0.21,0.58,0.36c3.22,3.21,6.45,6.41,9.64,9.65
		c0.31,0.32,0.55,0.8,0.62,1.24c0.11,0.66-0.25,1.18-0.85,1.47c-0.59,0.29-1.18,0.22-1.7-0.2c-0.15-0.12-0.29-0.27-0.42-0.41
		c-3.18-3.17-6.36-6.35-9.54-9.52C16.31,18.55,16.17,18.42,15.99,18.25z"/>
</g>
</svg>
