<?xml version="1.0" encoding="utf-8"?>
<!-- Generator: Adobe Illustrator 24.1.2, SVG Export Plug-In . SVG Version: 6.00 Build 0)  -->
<svg version="1.1" id="레이어_1" xmlns="http://www.w3.org/2000/svg" xmlns:xlink="http://www.w3.org/1999/xlink" x="0px"
	 y="0px" viewBox="0 0 32 32" style="enable-background:new 0 0 32 32;" xml:space="preserve">
<g>
	<g>
		<path d="M29.99,30.78l-5.66-7.08c2.04-1.72,3.45-3.95,4.19-6.66c0.96-3.57,0.5-7.02-1.38-10.26c-1.83-3.2-4.59-5.32-8.22-6.29
			c-3.56-0.95-7.01-0.5-10.27,1.34c-3.22,1.85-5.34,4.61-6.31,8.22c-0.97,3.59-0.51,7.02,1.35,10.2c1.84,3.23,4.6,5.35,8.22,6.32
			c1.21,0.32,2.42,0.49,3.59,0.49c0,0,0,0,0,0c2.29,0,4.54-0.63,6.7-1.87c0.32-0.19,0.62-0.39,0.92-0.59l5.69,7.13
			C28.96,31.9,29.18,32,29.4,32c0.16,0,0.33-0.05,0.47-0.16C30.2,31.58,30.25,31.1,29.99,30.78z M21.43,23.89
			c-1.92,1.1-3.91,1.66-5.93,1.66c0,0,0,0,0,0c-1.04,0-2.11-0.15-3.2-0.44c-3.21-0.86-5.67-2.75-7.3-5.61
			c-1.68-2.87-2.07-5.83-1.2-9.06c0.87-3.25,2.71-5.64,5.6-7.3c1.92-1.08,3.91-1.63,5.92-1.63c1.04,0,2.12,0.15,3.21,0.44
			c3.23,0.86,5.68,2.74,7.3,5.59c1.69,2.92,2.09,5.91,1.23,9.12c-0.73,2.67-2.17,4.81-4.27,6.37C22.36,23.3,21.9,23.6,21.43,23.89z"
			/>
	</g>
</g>
</svg>
