<?xml version="1.0" encoding="utf-8"?>
<!-- Generator: Adobe Illustrator 24.1.2, SVG Export Plug-In . SVG Version: 6.00 Build 0)  -->
<svg version="1.1" id="레이어_1" xmlns="http://www.w3.org/2000/svg" xmlns:xlink="http://www.w3.org/1999/xlink" x="0px"
	 y="0px" viewBox="0 0 32 32" style="enable-background:new 0 0 32 32;" xml:space="preserve">
<style type="text/css">
	.st0{fill:#41AC74;}
</style>
<g>
	<path class="st0" d="M16,30.24c-0.46,0-0.89-0.16-1.24-0.46c-1.29-1.13-2.54-2.19-3.64-3.13l-0.01-0.01
		c-3.23-2.74-6.01-5.12-7.94-7.46C1.01,16.56,0,14.09,0,11.38c0-2.63,0.9-5.06,2.54-6.83c1.66-1.8,3.93-2.79,6.4-2.79
		c1.85,0,3.54,0.58,5.02,1.74c0.75,0.58,1.43,1.29,2.03,2.13c0.6-0.83,1.28-1.54,2.03-2.13c1.49-1.15,3.18-1.74,5.02-1.74
		c2.47,0,4.74,0.99,6.4,2.79C31.1,6.33,32,8.75,32,11.38c0,2.71-1.01,5.18-3.18,7.79c-1.94,2.34-4.72,4.71-7.94,7.46
		c-1.1,0.94-2.35,2-3.64,3.14C16.89,30.07,16.46,30.24,16,30.24z"/>
</g>
</svg>
