<?xml version="1.0" encoding="utf-8"?>
<!-- Generator: Adobe Illustrator 24.1.2, SVG Export Plug-In . SVG Version: 6.00 Build 0)  -->
<svg version="1.1" id="레이어_1" xmlns="http://www.w3.org/2000/svg" xmlns:xlink="http://www.w3.org/1999/xlink" x="0px"
	 y="0px" viewBox="0 0 64 64" style="enable-background:new 0 0 64 64;" xml:space="preserve">
<g>
	<g>
		<path d="M62.22,43.99c0.48-0.07,0.76-0.41,0.78-0.92c0.02-0.53-0.22-0.9-0.71-1.11c-0.1-0.04-0.2-0.07-0.31-0.1
			c-4.92-1.47-9.84-2.94-14.76-4.41c-1.48-0.44-2.96-0.44-4.44,0c-1.99,0.59-3.99,1.19-5.98,1.78c-2.93,0.87-5.85,1.75-8.78,2.62
			c-0.46,0.14-0.84,0.35-0.96,0.85c-0.15,0.62,0.17,1.14,0.88,1.35c4.99,1.5,9.98,2.99,14.97,4.48c1.46,0.44,2.93,0.39,4.39-0.04
			c2.58-0.77,5.16-1.54,7.74-2.31c1.66-0.5,3.32-0.99,5.03-1.5c0,1.09,0,2.13,0,3.17c0,0.1-0.04,0.21-0.1,0.29
			c-0.54,0.76-0.5,1.77,0.14,2.45c-0.23,0.54-0.46,1.06-0.67,1.58c-0.21,0.51-0.11,0.74,0.43,0.78c0.63,0.04,1.27,0.04,1.89,0
			c0.48-0.03,0.59-0.24,0.42-0.7c-0.18-0.48-0.41-0.94-0.56-1.42c-0.05-0.16-0.02-0.41,0.08-0.55c0.27-0.39,0.45-1.59,0.14-1.92
			c-0.38-0.39-0.32-0.81-0.33-1.26c0-0.69,0.04-1.39-0.01-2.08C61.42,44.42,61.58,44.09,62.22,43.99z M57.17,48.97
			c-0.23,0.07-0.41,0.11-0.58,0.16c-2.77,0.83-5.53,1.69-8.31,2.5c-2.08,0.61-4.17,0.66-6.26,0.07c-1.65-0.47-3.29-0.98-4.94-1.47
			c-1.33-0.4-2.66-0.79-4.06-1.21c0,2.15-0.02,4.19,0.01,6.23c0.02,1.02,0.72,1.86,1.71,2.15c1.16,0.35,2.33,0.66,3.49,1.02
			c3.5,1.07,7.07,1.41,10.67,0.71c2.11-0.41,4.16-1.06,6.24-1.62c1.44-0.39,2.06-1.23,2.07-2.74c0-1.75,0-3.5,0-5.25
			C57.2,49.35,57.18,49.18,57.17,48.97z M28.8,48.18c-1.21-0.36-2.48-0.56-3.54-1.33c-0.11-0.08-0.31-0.06-0.47-0.06
			c-0.79,0-1.57,0-2.36,0v-24.7c0.76,0,1.52,0,2.27,0c0.76,0,1.51,0,2.27,0v16.19c0.19-0.05,0.35-0.08,0.5-0.12
			c1.66-0.49,3.32-0.99,4.99-1.46c0.4-0.11,0.48-0.31,0.48-0.69c-0.01-3.57-0.01-10.2-0.01-13.77c0-0.05-0.01-0.1-0.01-0.15
			c1.52,0,3.04,0,4.56,0v13.04c2-0.58,3.95-1.14,5.93-1.71V22.09c1.2,0,2.4,0,3.59,0c0.97,0,1.31-0.34,1.31-1.31
			c0-1.28-0.02-2.55,0.01-3.83c0.02-0.68-0.26-1.07-0.86-1.36c-7.37-3.63-14.74-7.26-22.1-10.91C24.91,4.45,24.48,4.43,24,4.67
			C16.6,8.33,9.2,11.98,1.8,15.63C1.25,15.9,0.99,16.3,1,16.93c0.02,1.2,0,2.41,0.01,3.61c0,1.21,0.34,1.56,1.55,1.56
			c1.11,0,2.23,0,3.34,0c-0.01,0.06-0.02,0.12-0.02,0.21c0.01,5.93,0.01,18.27,0.01,24.49c-1.19,0-2.39,0-3.58,0
			c-0.86,0-1.23,0.37-1.23,1.23c0,1.15,0,2.3,0,3.45c0,1.12,0.31,1.44,1.41,1.44c8.74,0,17.48,0,26.22,0h0.64
			c0-1.35-0.02-2.64,0.01-3.93C29.38,48.51,29.25,48.32,28.8,48.18z M16.51,46.79c-1.54,0-3.07,0-4.61,0c0-6.46,0-18.67,0.01-24.67
			c0-0.01,0-0.02,0-0.03c1.53,0,3.07,0,4.6,0V46.79z M21.41,13.74c0.01-1.83,1.49-3.29,3.31-3.27c1.8,0.02,3.21,1.47,3.2,3.31
			c-0.01,1.83-1.42,3.26-3.24,3.25C22.84,17.03,21.4,15.58,21.41,13.74z"/>
	</g>
</g>
</svg>
