<?xml version="1.0" encoding="utf-8"?>
<!-- Generator: Adobe Illustrator 24.1.2, SVG Export Plug-In . SVG Version: 6.00 Build 0)  -->
<svg version="1.1" id="레이어_1" xmlns="http://www.w3.org/2000/svg" xmlns:xlink="http://www.w3.org/1999/xlink" x="0px"
	 y="0px" viewBox="0 0 32 32" style="enable-background:new 0 0 32 32;" xml:space="preserve">
<g>
	<path d="M30.2,14.23H6.06l6.87-6.76c0.69-0.68,0.69-1.79,0-2.47c-0.69-0.68-1.81-0.68-2.5,0l-9.9,9.75C0.18,15.09,0,15.54,0,16
		c0,0.47,0.18,0.91,0.51,1.24l9.9,9.75c0.35,0.35,0.81,0.51,1.26,0.51c0.45,0,0.91-0.17,1.26-0.51c0.69-0.68,0.69-1.79,0-2.47
		l-6.87-6.76h24.15c0.99,0,1.77-0.78,1.77-1.75C32,15.05,31.17,14.23,30.2,14.23z"/>
</g>
</svg>
