<?xml version="1.0" encoding="utf-8"?>
<!-- Generator: Adobe Illustrator 24.1.2, SVG Export Plug-In . SVG Version: 6.00 Build 0)  -->
<svg version="1.1" id="레이어_1" xmlns="http://www.w3.org/2000/svg" xmlns:xlink="http://www.w3.org/1999/xlink" x="0px"
	 y="0px" viewBox="0 0 32 32" style="enable-background:new 0 0 32 32;" xml:space="preserve">
<g>
	<g>
		<path d="M26.74,11.8h-2.39V9.4C24.35,4.76,20.62,1,16,1c-4.61,0-8.35,3.76-8.35,8.4v2.4H5.26c-1.32,0-2.39,1.07-2.39,2.4v14.4
			c0,1.32,1.07,2.4,2.39,2.4h21.47c1.32,0,2.39-1.08,2.39-2.4V14.2C29.12,12.87,28.06,11.8,26.74,11.8z M21.97,11.8H10.03V9.4
			c0-3.31,2.67-6,5.97-6c3.3,0,5.97,2.69,5.97,6V11.8z"/>
	</g>
</g>
</svg>
