<?xml version="1.0" encoding="utf-8"?>
<!-- Generator: Adobe Illustrator 24.1.2, SVG Export Plug-In . SVG Version: 6.00 Build 0)  -->
<svg version="1.1" id="레이어_1" xmlns="http://www.w3.org/2000/svg" xmlns:xlink="http://www.w3.org/1999/xlink" x="0px"
	 y="0px" viewBox="0 0 32 32" style="enable-background:new 0 0 32 32;" xml:space="preserve">
<style type="text/css">
	.st0{fill:#518EF8;}
	.st1{fill:#FBBB00;}
	.st2{fill:#F14336;}
	.st3{fill:#28B446;}
</style>
<g>
	<g>
		<path class="st0" d="M30.74,13.2C30.91,14.11,31,15.05,31,16c0,1.07-0.11,2.12-0.33,3.14c-0.73,3.44-2.64,6.44-5.28,8.57
			l-4.28-0.22l-0.6-3.78c1.75-1.03,3.12-2.64,3.84-4.57h-8.03V13.2h8.14H30.74z"/>
	</g>
	<g>
		<path class="st1" d="M7.65,19.13l-1.04,3.9l-3.81,0.08C1.64,20.99,1,18.57,1,16c0-2.49,0.6-4.84,1.67-6.9l3.4,0.62l1.49,3.38
			c-0.31,0.91-0.48,1.88-0.48,2.9C7.08,17.1,7.28,18.16,7.65,19.13z"/>
	</g>
	<g>
		<path class="st2" d="M25.57,4.45l-4.86,3.98C19.35,7.57,17.73,7.08,16,7.08c-3.91,0-7.23,2.52-8.44,6.02l-4.89-4
			C5.17,4.29,10.2,1,16,1C19.64,1,22.98,2.29,25.57,4.45z"/>
	</g>
	<g>
		<path class="st3" d="M25.39,27.7C22.82,29.76,19.56,31,16,31c-5.71,0-10.68-3.19-13.21-7.89l4.86-3.98
			c1.26,3.38,4.53,5.79,8.35,5.79c1.64,0,3.18-0.44,4.5-1.22L25.39,27.7z"/>
	</g>
</g>
</svg>
