<?xml version="1.0" encoding="utf-8"?>
<!-- Generator: Adobe Illustrator 24.1.2, SVG Export Plug-In . SVG Version: 6.00 Build 0)  -->
<svg version="1.1" id="레이어_1" xmlns="http://www.w3.org/2000/svg" xmlns:xlink="http://www.w3.org/1999/xlink" x="0px"
	 y="0px" viewBox="0 0 32 32" style="enable-background:new 0 0 32 32;" xml:space="preserve">
<style type="text/css">
	.st0{fill:#9E9E9E;}
</style>
<g>
	<g>
		<path class="st0" d="M29.46,4.55c-1.66-1.8-3.93-2.79-6.4-2.79c-1.84,0-3.54,0.59-5.03,1.74C17.28,4.08,16.6,4.79,16,5.62
			c-0.6-0.83-1.28-1.55-2.03-2.13c-1.49-1.16-3.18-1.74-5.03-1.74c-2.47,0-4.74,0.99-6.4,2.79C0.9,6.32,0,8.75,0,11.38
			c0,2.71,1.01,5.18,3.18,7.8c1.94,2.34,4.72,4.71,7.95,7.46l0.01,0.01c1.1,0.94,2.34,2,3.64,3.13c0.34,0.3,0.78,0.46,1.24,0.46
			c0.46,0,0.89-0.16,1.23-0.46c1.29-1.14,2.54-2.2,3.64-3.14c3.23-2.75,6.01-5.12,7.95-7.46c2.17-2.61,3.18-5.09,3.18-7.8
			C32,8.75,31.1,6.32,29.46,4.55z M27.39,17.98c-1.84,2.21-4.56,4.53-7.72,7.23c-1.11,0.94-2.36,2.01-3.67,3.15
			c-1.3-1.14-2.55-2.2-3.66-3.15l-0.01-0.01c-3.16-2.69-5.89-5.02-7.72-7.23c-1.9-2.29-2.74-4.33-2.74-6.6
			c0-2.16,0.72-4.13,2.05-5.57C5.22,4.41,7,3.63,8.94,3.63c1.43,0,2.73,0.45,3.88,1.34c1.03,0.79,1.74,1.8,2.16,2.5
			C15.2,7.84,15.57,8.05,16,8.05c0.43,0,0.8-0.21,1.02-0.57c0.42-0.7,1.14-1.71,2.16-2.5c1.15-0.89,2.46-1.34,3.88-1.34
			c1.95,0,3.73,0.78,5.03,2.18c1.32,1.43,2.05,3.41,2.05,5.57C30.14,13.66,29.29,15.7,27.39,17.98z"/>
	</g>
</g>
</svg>
