<?xml version="1.0" encoding="utf-8"?>
<!-- Generator: Adobe Illustrator 24.1.2, SVG Export Plug-In . SVG Version: 6.00 Build 0)  -->
<svg version="1.1" id="레이어_1" xmlns="http://www.w3.org/2000/svg" xmlns:xlink="http://www.w3.org/1999/xlink" x="0px"
	 y="0px" viewBox="0 0 64 64" style="enable-background:new 0 0 64 64;" xml:space="preserve">
<g>
	<g>
		<path d="M32.21,63.08c3.95,0,7.14-3.2,7.14-7.15H25.08C25.08,59.88,28.27,63.08,32.21,63.08z M55.99,46.39
			c-4.57-4.58-7.13-10.79-7.13-17.27v-6.57c0-7.56-5.02-13.95-11.9-16V5.85c0-2.63-2.13-4.77-4.76-4.77c-2.63,0-4.76,2.13-4.76,4.77
			v0.69c-6.88,2.05-11.89,8.44-11.89,16v6.57c0,6.48-2.56,12.69-7.13,17.27c-1.31,0-2.38,1.07-2.38,2.39c0,1.32,1.07,2.38,2.38,2.38
			h47.57c1.32,0,2.38-1.07,2.38-2.38C58.38,47.46,57.31,46.39,55.99,46.39z"/>
	</g>
</g>
</svg>
