<?xml version="1.0" encoding="utf-8"?>
<!-- Generator: Adobe Illustrator 24.1.2, SVG Export Plug-In . SVG Version: 6.00 Build 0)  -->
<svg version="1.1" id="레이어_1" xmlns="http://www.w3.org/2000/svg" xmlns:xlink="http://www.w3.org/1999/xlink" x="0px"
	 y="0px" viewBox="0 0 64 64" style="enable-background:new 0 0 64 64;" xml:space="preserve">
<path d="M62.22,31.28c1.12-1.22,1.01-3.1-0.24-4.18L34.27,3.11c-1.26-1.09-3.27-1.07-4.5,0.05L1.97,28.38
	c-1.23,1.12-1.29,2.99-0.13,4.18l0.7,0.72c1.16,1.19,3.02,1.33,4.17,0.32l2.08-1.84V58.7c0,1.65,1.35,2.99,3.02,2.99h10.84
	c1.67,0,3.02-1.34,3.02-2.99V39.84h13.82V58.7c-0.02,1.65,1.17,2.99,2.84,2.99h11.48c1.67,0,3.02-1.34,3.02-2.99V32.13
	c0,0,0.58,0.5,1.28,1.11c0.71,0.61,2.19,0.12,3.32-1.1L62.22,31.28z"/>
</svg>
