<?xml version="1.0" encoding="utf-8"?>
<!-- Generator: Adobe Illustrator 24.1.2, SVG Export Plug-In . SVG Version: 6.00 Build 0)  -->
<svg version="1.1" id="레이어_1" xmlns="http://www.w3.org/2000/svg" xmlns:xlink="http://www.w3.org/1999/xlink" x="0px"
	 y="0px" viewBox="0 0 32 32" style="enable-background:new 0 0 32 32;" xml:space="preserve">
<style type="text/css">
	.st0{fill:#FFFFFF;}
</style>
<g>
	<g>
		<path class="st0" d="M27.75,20.26c-2.01,0-4.02,0-6.02,0h-0.34c0-0.12,0-0.21,0-0.3c0-0.77,0-1.55,0.01-2.32
			c0.01-1.04-0.76-1.89-1.76-1.9c-2.42-0.02-4.83-0.02-7.25,0c-1.01,0.01-1.73,0.77-1.76,1.79c-0.01,0.39,0,0.77,0,1.16
			c0,0.51,0,1.03,0,1.57H10.3c-2.02,0-4.03,0.02-6.05-0.01c-0.96-0.02-1.93,0.71-1.93,1.96c0.02,2.97,0.01,5.95,0.01,8.92
			c0,0.66,0.21,0.87,0.86,0.87c2.88,0,5.75-0.01,8.63-0.01c3.23,0,6.46,0,9.69,0c2.46,0,4.92,0,7.38,0c0.54,0,0.78-0.24,0.78-0.79
			c0-0.53,0-1.07,0-1.6c0-2.43-0.01-4.86,0.01-7.29C29.69,21.09,28.95,20.26,27.75,20.26z M10.6,30.68H3.61v-0.29
			c0-2.72,0-5.45,0-8.17c0-0.49,0.09-0.6,0.56-0.65c0.13-0.01,0.25-0.02,0.38-0.02c1.9,0,3.8,0,5.7,0h0.35V30.68z M20.09,30.48
			c0,0.06-0.01,0.13-0.02,0.2h-8.19c0-0.1,0-0.19,0-0.29c0-4.21-0.01-8.41-0.01-12.62c0-0.6,0.13-0.74,0.74-0.74
			c2.25,0,4.51,0,6.76,0c0.59,0,0.74,0.13,0.74,0.72C20.11,21.99,20.1,26.24,20.09,30.48z M28.39,30.69h-6.98v-9.14h0.31
			c2,0,4,0,6,0c0.5,0,0.66,0.13,0.66,0.58c0.01,2.76,0.01,5.52,0.01,8.28V30.69z M11.61,9.32c0.11,0.1,0.15,0.19,0.11,0.36
			c-0.3,1.34-0.58,2.69-0.86,4.04c-0.03,0.15-0.07,0.31-0.06,0.46c0.04,0.51,0.54,0.74,1.02,0.48c1.32-0.72,2.64-1.44,3.96-2.17
			c0.16-0.09,0.29-0.08,0.45,0c1.32,0.73,2.64,1.45,3.96,2.17c0.26,0.14,0.52,0.17,0.76-0.02c0.24-0.19,0.29-0.44,0.23-0.74
			c-0.3-1.39-0.59-2.79-0.89-4.18c-0.04-0.19,0-0.3,0.13-0.43c1.02-0.97,2.03-1.95,3.03-2.93c0.13-0.13,0.21-0.32,0.32-0.48
			c-0.05-0.39-0.28-0.64-0.65-0.7c-1.43-0.2-2.86-0.4-4.3-0.62c-0.09-0.01-0.21-0.09-0.25-0.17c-0.64-1.29-1.29-2.57-1.9-3.87
			c-0.14-0.3-0.32-0.52-0.65-0.53c-0.34-0.01-0.52,0.22-0.66,0.51c-0.62,1.29-1.26,2.57-1.9,3.84c-0.05,0.09-0.18,0.19-0.28,0.21
			c-1.39,0.21-2.79,0.42-4.19,0.6C8.67,5.21,8.43,5.31,8.33,5.63C8.22,5.96,8.38,6.19,8.6,6.41C9.61,7.38,10.61,8.35,11.61,9.32z
			 M10.38,6.27c0.47-0.07,0.94-0.14,1.41-0.21c0.68-0.1,1.36-0.19,2.04-0.28c0.3-0.04,0.47-0.23,0.6-0.5
			c0.47-0.96,0.95-1.92,1.42-2.88c0.04-0.08,0.08-0.16,0.14-0.27c0.06,0.11,0.11,0.19,0.15,0.28c0.47,0.94,0.94,1.89,1.39,2.84
			c0.16,0.35,0.4,0.5,0.77,0.55c1.05,0.13,2.09,0.29,3.14,0.44c0.05,0.01,0.1,0.03,0.16,0.04c0.03,0.03,0.06,0.06,0.08,0.1
			c-0.09,0.05-0.19,0.08-0.26,0.14c-0.73,0.7-1.45,1.41-2.19,2.1c-0.3,0.28-0.38,0.57-0.29,0.96c0.23,1.01,0.44,2.03,0.65,3.04
			c0.01,0.07,0.02,0.14,0.03,0.25c-0.12-0.06-0.2-0.1-0.29-0.15c-0.95-0.52-1.9-1.03-2.84-1.56c-0.36-0.2-0.67-0.19-1.02,0
			c-0.95,0.53-1.91,1.05-2.86,1.57c-0.08,0.04-0.16,0.08-0.28,0.14c0.24-1.12,0.45-2.18,0.7-3.23c0.1-0.44,0.01-0.76-0.32-1.06
			C12,7.91,11.29,7.2,10.56,6.51c-0.06-0.06-0.15-0.1-0.22-0.16C10.35,6.33,10.37,6.3,10.38,6.27z"/>
	</g>
</g>
</svg>
