<?xml version="1.0" encoding="utf-8"?>
<!-- Generator: Adobe Illustrator 24.1.2, SVG Export Plug-In . SVG Version: 6.00 Build 0)  -->
<svg version="1.1" id="레이어_1" xmlns="http://www.w3.org/2000/svg" xmlns:xlink="http://www.w3.org/1999/xlink" x="0px"
	 y="0px" viewBox="0 0 32 32" style="enable-background:new 0 0 32 32;" xml:space="preserve">
<style type="text/css">
	.st0{fill:#41AC74;}
</style>
<g>
	<g>
		<path class="st0" d="M31.97,24.96c-1.19-4.29-2.36-8.59-3.54-12.88c-0.2-0.74-0.41-1.47-0.62-2.24c-1.51,0.92-3,1.81-4.47,2.72
			c-0.3,0.18-0.34,0.6-0.16,0.91c0.23,0.37,0.63,0.46,1.03,0.22c0.81-0.48,1.61-0.97,2.42-1.45c0.09-0.05,0.18-0.1,0.28-0.15
			c0.03,0.1,0.05,0.15,0.07,0.21c1.11,4.01,2.22,8.03,3.33,12.04c0.05,0.2-0.01,0.28-0.16,0.38c-1.77,1.07-3.54,2.15-5.31,3.23
			c-0.06,0.03-0.12,0.06-0.19,0.09c-0.02-0.11-0.04-0.2-0.05-0.28c-0.23-1.96-0.45-3.93-0.67-5.89c-0.21-1.84-0.42-3.69-0.65-5.53
			c-0.02-0.19-0.16-0.41-0.31-0.54c-0.22-0.19-0.5-0.19-0.75-0.03c-0.29,0.18-0.38,0.46-0.34,0.8c0.16,1.32,0.31,2.64,0.46,3.95
			c0.23,1.97,0.46,3.94,0.68,5.92c0.07,0.58,0.13,1.16,0.2,1.74c-0.05,0-0.08,0.01-0.09,0c-2.04-0.69-4.08-1.38-6.13-2.06
			c-0.16-0.05-0.19-0.14-0.18-0.28c0.01-0.74,0-1.48,0-2.22c0-0.47-0.29-0.79-0.7-0.8c-0.42-0.01-0.72,0.32-0.72,0.81
			c0,0.71-0.01,1.42,0.01,2.13c0,0.21-0.06,0.29-0.25,0.35c-1.34,0.43-2.67,0.88-4,1.32c-0.71,0.23-1.42,0.47-2.15,0.71
			c0-0.09,0-0.15,0.01-0.21c0.15-1.27,0.3-2.54,0.45-3.81c0.29-2.52,0.58-5.04,0.88-7.55c0.05-0.46-0.18-0.83-0.58-0.9
			c-0.42-0.07-0.77,0.21-0.83,0.69c-0.15,1.24-0.29,2.48-0.43,3.72c-0.23,2.01-0.46,4.02-0.69,6.04c-0.08,0.67-0.16,1.34-0.24,2.06
			c-1.99-1.22-3.93-2.41-5.87-3.59c1.16-4.19,2.3-8.33,3.45-12.5c0.11,0.06,0.19,0.11,0.27,0.16c0.77,0.46,1.54,0.93,2.32,1.39
			c0.47,0.28,0.93,0.21,1.17-0.19c0.22-0.37,0.07-0.73-0.41-1.03c-1.28-0.78-2.56-1.55-3.84-2.33c-0.13-0.08-0.25-0.15-0.4-0.24
			C2.82,14.99,1.41,20.12,0,25.25c0.06,0.04,0.09,0.07,0.14,0.1c2.52,1.53,5.05,3.07,7.57,4.59C7.81,30,7.99,30,8.12,29.96
			c2.51-0.83,5.01-1.66,7.51-2.51c0.29-0.1,0.52-0.09,0.8,0c2.49,0.84,4.99,1.67,7.48,2.51c0.2,0.07,0.34,0.06,0.52-0.05
			c2.45-1.5,4.91-2.99,7.37-4.47C32,25.3,32.03,25.19,31.97,24.96z M14.03,19.16c0.66,0.74,1.35,1.45,2.08,2.22
			c0.83-0.9,1.63-1.73,2.39-2.6c1.56-1.81,2.88-3.78,3.75-6.03c0.68-1.74,0.92-3.54,0.52-5.37c-0.83-3.79-4.55-6.09-8.3-5.19
			c-2.73,0.66-4.8,2.97-5.15,5.77c-0.22,1.78,0.07,3.47,0.76,5.12C11.02,15.36,12.41,17.34,14.03,19.16z M11.08,6.82
			c0.86-2.2,3.14-3.59,5.46-3.37c2.47,0.23,4.44,1.98,4.88,4.39c0.3,1.66,0,3.25-0.66,4.79c-0.92,2.15-2.27,4.01-3.81,5.74
			c-0.26,0.29-0.53,0.57-0.79,0.85c-0.01,0.01-0.03,0.02-0.09,0.04c-2.15-2.3-4.08-4.74-5.04-7.81C10.55,9.92,10.48,8.35,11.08,6.82
			z M16.28,12.43c1.97,0,3.58-1.61,3.59-3.58c0.01-1.98-1.61-3.61-3.6-3.61c-1.99,0-3.61,1.62-3.6,3.6
			C12.68,10.82,14.29,12.43,16.28,12.43z M16.28,6.68c1.2,0,2.17,0.97,2.16,2.16c0,1.2-0.99,2.16-2.2,2.15
			c-1.19-0.01-2.17-1-2.15-2.18C14.11,7.62,15.08,6.67,16.28,6.68z"/>
	</g>
</g>
</svg>
