<?xml version="1.0" encoding="utf-8"?>
<!-- Generator: Adobe Illustrator 25.4.1, SVG Export Plug-In . SVG Version: 6.00 Build 0)  -->
<svg version="1.1" id="레이어_1" xmlns="http://www.w3.org/2000/svg" xmlns:xlink="http://www.w3.org/1999/xlink" x="0px"
	 y="0px" viewBox="0 0 300 65" style="enable-background:new 0 0 300 65;" xml:space="preserve">
<style type="text/css">
	.st0{fill:#FFFFFF;}
</style>
<g>
	<g>
		<path d="M138.4,63.8h58.2v-7.9h-58.2V63.8z M29.4,4.2C28,3,26.2,2.2,24.2,1.7C22.1,1.2,20,1,17.6,1S13,1.2,11,1.8
			C9,2.2,7.2,3,5.7,4.2C4.3,5.3,3.1,6.7,2.3,8.5c-0.8,1.8-1.3,4-1.3,6.7v34.7c0,2.6,0.4,4.8,1.3,6.6s2,3.2,3.5,4.3
			c1.5,1.1,3.2,1.9,5.2,2.4s4.2,0.8,6.6,0.8c2.4,0,4.6-0.2,6.6-0.8c2-0.5,3.8-1.3,5.2-2.4s2.6-2.5,3.5-4.3s1.3-4,1.3-6.6v-2.7h-9.6
			c0,1.3-0.1,2.5-0.2,3.4c-0.1,1-0.4,1.8-0.9,2.5c-0.5,0.7-1.2,1.2-2.1,1.5s-2.2,0.5-3.8,0.5c-0.8,0-1.7-0.1-2.5-0.3
			c-0.8-0.2-1.6-0.5-2.2-0.9c-0.7-0.4-1.2-0.9-1.6-1.6c-0.4-0.7-0.6-1.5-0.6-2.5V15.2c0-0.9,0.2-1.8,0.6-2.4
			c0.4-0.7,0.9-1.2,1.6-1.7s1.4-0.7,2.2-0.9c0.8-0.2,1.6-0.3,2.5-0.3c0.8,0,1.7,0.1,2.5,0.3c0.8,0.2,1.6,0.5,2.2,0.9s1.2,1,1.6,1.6
			c0.4,0.7,0.6,1.5,0.6,2.5v2.6h9.6v-2.6c0-2.6-0.4-4.9-1.3-6.7C32.1,6.7,30.9,5.3,29.4,4.2z M64.2,25.8H48.1V1h-9.6l-0.1,63h9.7
			V34.7h16.1V64h9.7V1h-9.6L64.2,25.8z M78.2,64h33.7v-8.9h-24V34.7h15.2v-8.9H87.9V9.9h24V1H78.2L78.2,64z M212.1,64h9.7V1h-9.6
			L212.1,64z M251.9,40.4L235.8,1h-9.6L226,64h9.7V24.8L251.9,64h9.7V1h-9.6L251.9,40.4z M299,17.8v-2.6c0-2.6-0.4-4.9-1.3-6.7
			c-0.8-1.8-2-3.3-3.5-4.4C292.8,3,291,2.2,289,1.7c-2-0.5-4.2-0.8-6.6-0.8s-4.6,0.2-6.6,0.8c-2,0.5-3.8,1.3-5.2,2.4
			c-1.5,1.1-2.6,2.6-3.5,4.4c-0.8,1.8-1.3,4-1.3,6.7v34.7c0,2.6,0.4,4.8,1.3,6.6s2,3.2,3.5,4.3c1.5,1.1,3.2,1.9,5.2,2.4
			s4.2,0.8,6.6,0.8s4.6-0.2,6.6-0.8c2-0.5,3.8-1.3,5.2-2.4s2.6-2.5,3.5-4.3s1.3-4,1.3-6.6V25.7h-16.6v8.9h7v15.2
			c0,1-0.2,1.8-0.6,2.5c-0.4,0.7-0.9,1.2-1.6,1.6c-0.7,0.4-1.4,0.7-2.2,0.8c-0.8,0.2-1.7,0.2-2.5,0.2s-1.7-0.1-2.5-0.3
			c-0.8-0.2-1.5-0.5-2.2-0.9c-0.7-0.4-1.2-0.9-1.6-1.6c-0.4-0.7-0.6-1.5-0.6-2.5V15.2c0-0.9,0.2-1.8,0.6-2.4
			c0.4-0.7,0.9-1.2,1.6-1.7c0.7-0.4,1.4-0.7,2.2-0.9c0.8-0.2,1.6-0.3,2.5-0.3c0.8,0,1.7,0.1,2.5,0.3c0.8,0.2,1.6,0.5,2.2,0.9
			s1.2,1,1.6,1.6s0.6,1.5,0.6,2.5v2.6H299z M117.4,27.7h7.9v-8.1h-7.9V27.7z M117.4,49.8h7.9v-8.1h-7.9V49.8z"/>
	</g>
</g>
<g>
	<path class="st0" d="M164.2,53.4l-25.8-22.9l6.8-7.7l18.1,16.1l27.4-31l7.7,6.8L164.2,53.4z"/>
</g>
</svg>
