<?xml version="1.0" encoding="utf-8"?>
<!-- Generator: Adobe Illustrator 24.1.2, SVG Export Plug-In . SVG Version: 6.00 Build 0)  -->
<svg version="1.1" id="레이어_1" xmlns="http://www.w3.org/2000/svg" xmlns:xlink="http://www.w3.org/1999/xlink" x="0px"
	 y="0px" viewBox="0 0 300 65" style="enable-background:new 0 0 300 65;" xml:space="preserve">
<style type="text/css">
	.st0{fill:#41AC74;}
</style>
<g>
	<g>
		<path d="M138.35,63.8h58.2v-7.9h-58.2V63.8z M29.43,4.15c-1.47-1.11-3.23-1.91-5.25-2.41C22.15,1.25,19.95,1,17.58,1
			c-2.37,0-4.57,0.25-6.59,0.75c-2.03,0.5-3.78,1.3-5.25,2.41C4.26,5.26,3.1,6.72,2.26,8.54C1.42,10.35,1,12.58,1,15.21v34.66
			c0,2.63,0.42,4.84,1.26,6.63c0.84,1.79,2,3.24,3.47,4.34c1.47,1.11,3.22,1.91,5.25,2.41c2.03,0.5,4.23,0.75,6.59,0.75
			c2.37,0,4.57-0.25,6.59-0.75c2.03-0.5,3.78-1.3,5.25-2.41c1.47-1.11,2.63-2.55,3.47-4.34c0.84-1.79,1.26-4,1.26-6.63v-2.68h-9.63
			c0,1.32-0.07,2.46-0.2,3.43c-0.13,0.97-0.43,1.79-0.91,2.45c-0.47,0.66-1.17,1.16-2.09,1.5c-0.92,0.34-2.17,0.51-3.75,0.51
			c-0.84,0-1.67-0.09-2.49-0.28c-0.82-0.18-1.55-0.47-2.21-0.87c-0.66-0.39-1.18-0.93-1.58-1.62c-0.39-0.68-0.59-1.5-0.59-2.45
			V15.21c0-0.95,0.2-1.76,0.59-2.45c0.39-0.68,0.92-1.24,1.58-1.66c0.66-0.42,1.39-0.72,2.21-0.91c0.82-0.18,1.64-0.28,2.49-0.28
			c0.84,0,1.68,0.09,2.53,0.28c0.84,0.19,1.59,0.49,2.25,0.91c0.66,0.42,1.18,0.96,1.58,1.62c0.39,0.66,0.59,1.49,0.59,2.49v2.6
			h9.63v-2.6c0-2.63-0.42-4.86-1.26-6.67C32.06,6.72,30.9,5.26,29.43,4.15z M64.17,25.79H48.06V1h-9.63L38.35,64h9.71V34.71h16.11
			V64h9.71V1h-9.63L64.17,25.79z M78.15,64h33.72v-8.92h-24V34.71h15.24v-8.92H87.86V9.92h24V1H78.22L78.15,64z M212.06,64h9.71V1
			h-9.63L212.06,64z M251.86,40.4L235.75,1h-9.63L226.04,64h9.71V24.76L251.86,64h9.71V1h-9.63L251.86,40.4z M299,17.81v-2.6
			c0-2.63-0.42-4.86-1.26-6.67c-0.84-1.82-2-3.28-3.47-4.38c-1.47-1.11-3.23-1.91-5.25-2.41c-2.03-0.5-4.22-0.75-6.59-0.75
			c-2.37,0-4.57,0.25-6.59,0.75c-2.03,0.5-3.78,1.3-5.25,2.41c-1.47,1.1-2.63,2.57-3.47,4.38c-0.84,1.82-1.26,4.04-1.26,6.67v34.66
			c0,2.63,0.42,4.84,1.26,6.63c0.84,1.79,2,3.24,3.47,4.34c1.47,1.11,3.22,1.91,5.25,2.41c2.03,0.5,4.22,0.75,6.59,0.75
			c2.37,0,4.57-0.25,6.59-0.75c2.03-0.5,3.78-1.3,5.25-2.41c1.47-1.11,2.63-2.55,3.47-4.34c0.84-1.79,1.26-4,1.26-6.63V25.71h-16.58
			v8.92h6.95v15.24c0,1-0.2,1.84-0.59,2.53c-0.39,0.68-0.92,1.22-1.58,1.62c-0.66,0.39-1.41,0.67-2.25,0.83
			c-0.84,0.16-1.69,0.24-2.53,0.24c-0.84,0-1.67-0.09-2.49-0.28c-0.82-0.18-1.55-0.47-2.21-0.87c-0.66-0.39-1.18-0.93-1.58-1.62
			c-0.39-0.68-0.59-1.5-0.59-2.45V15.21c0-0.95,0.2-1.76,0.59-2.45c0.39-0.68,0.92-1.24,1.58-1.66c0.66-0.42,1.39-0.72,2.21-0.91
			c0.82-0.18,1.64-0.28,2.49-0.28c0.84,0,1.68,0.09,2.53,0.28c0.84,0.19,1.59,0.49,2.25,0.91c0.66,0.42,1.18,0.96,1.58,1.62
			s0.59,1.49,0.59,2.49v2.6H299z M117.41,27.71h7.9v-8.12h-7.9V27.71z M117.41,49.82h7.9V41.7h-7.9V49.82z"/>
	</g>
</g>
<g>
	<path class="st0" d="M164.25,53.37l-25.77-22.88l6.82-7.68l18.08,16.05L190.76,7.9l7.69,6.8L164.25,53.37z"/>
</g>
</svg>
